<svg version="1.1" xmlns="http://www.w3.org/2000/svg" xmlns:xlink="http://www.w3.org/1999/xlink" width="724" height="660"><defs/><g><g transform="translate(-142,2) scale(1,1)"><path fill="#C0C0C0" stroke="none" d="M 159 25 L 852 25 L 852 654 L 159 654" opacity="0.2"/></g><g transform="translate(-142,2) scale(1,1)"><path fill="#C0C0C0" stroke="none" d="M 159 25 L 169 15 L 862 15 L 852 25" opacity="0.2"/></g><g transform="translate(-142,2) scale(1,1)"><path fill="#C0C0C0" stroke="none" d="M 862 15 L 852 25 L 852 654 L 862 644" opacity="0.2"/></g><g transform="translate(-142,2) scale(1,1)"><path fill="#ffffff" stroke="none" d="M 152 18 L 845 18 L 845 647 L 152 647"/></g><g transform="translate(-142,2) scale(1,1)"><path fill="#ffffff" stroke="none" d="M 152 18 L 162 8 L 855 8 L 845 18"/></g><g transform="translate(-142,2) scale(1,1)"><path fill="#ffffff" stroke="none" d="M 855 8 L 845 18 L 845 647 L 855 637"/></g><g transform="translate(-142,2) scale(1,1)"><path fill="none" stroke="#000000" d="M 152 18 L 845 18 L 845 647 L 152 647 L 152 18" stroke-miterlimit="10"/></g><g transform="translate(-142,2) scale(1,1)"><path fill="none" stroke="#000000" d="M 152 18 L 162 8 L 855 8 L 845 18 L 152 18" stroke-miterlimit="10"/></g><g transform="translate(-142,2) scale(1,1)"><path fill="none" stroke="#000000" d="M 855 8 L 845 18 L 845 647 L 855 637 L 855 8" stroke-miterlimit="10"/></g><g transform="translate(-142,2) scale(1,1)"><g><path fill="none" stroke="none"/><text fill="#000000" stroke="none" font-family="Arial" font-size="13px" font-style="normal" font-weight="bold" text-decoration="none" x="468.6455078125" y="37.5">movepoup</text></g></g><g transform="translate(-142,2) scale(1,1)"><path fill="#C0C0C0" stroke="none" d="M 256.0572265625 143 L 283.49722656250003 143 L 295.2572265625 154.76 L 295.2572265625 192 L 256.0572265625 192" opacity="0.2"/></g><g transform="translate(-142,2) scale(1,1)"><path fill="#ffffff" stroke="none" d="M 249.05722656249998 136 L 276.49722656250003 136 L 288.2572265625 147.76000000000002 L 288.2572265625 185 L 249.05722656249998 185"/></g><g transform="translate(-142,2) scale(1,1)"><path fill="none" stroke="#000000" d="M 249.05722656249998 136 L 276.49722656250003 136 L 288.2572265625 147.76000000000002 L 288.2572265625 185 L 249.05722656249998 185 L 249.05722656249998 136" stroke-miterlimit="10"/></g><g transform="translate(-142,2) scale(1,1)"><path fill="none" stroke="#000000" d="M 276.49722656250003 136 L 276.49722656250003 147.76000000000002 L 288.2572265625 147.76000000000002 L 276.49722656250003 136" stroke-miterlimit="10"/></g><g transform="translate(-142,2) scale(1,1)"><g><path fill="none" stroke="none"/><text fill="#000000" stroke="none" font-family="Arial" font-size="13px" font-style="normal" font-weight="bold" text-decoration="none" x="239.4072265625" y="204.5">.travis.yml</text></g></g><g transform="translate(-142,2) scale(1,1)"><path fill="#C0C0C0" stroke="none" d="M 394.2681640625 135 L 421.7081640625 135 L 433.46816406249997 146.76 L 433.46816406249997 184 L 394.2681640625 184" opacity="0.2"/></g><g transform="translate(-142,2) scale(1,1)"><path fill="#ffffff" stroke="none" d="M 387.2681640625 128 L 414.70816406250003 128 L 426.4681640625 139.76000000000002 L 426.4681640625 177 L 387.2681640625 177"/></g><g transform="translate(-142,2) scale(1,1)"><path fill="none" stroke="#000000" d="M 387.2681640625 128 L 414.70816406250003 128 L 426.4681640625 139.76000000000002 L 426.4681640625 177 L 387.2681640625 177 L 387.2681640625 128" stroke-miterlimit="10"/></g><g transform="translate(-142,2) scale(1,1)"><path fill="none" stroke="#000000" d="M 414.70816406250003 128 L 414.70816406250003 139.76000000000002 L 426.4681640625 139.76000000000002 L 414.70816406250003 128" stroke-miterlimit="10"/></g><g transform="translate(-142,2) scale(1,1)"><g><path fill="none" stroke="none"/><text fill="#000000" stroke="none" font-family="Arial" font-size="13px" font-style="normal" font-weight="bold" text-decoration="none" x="384.8291015625" y="196.5">index.js</text></g></g><g transform="translate(-142,2) scale(1,1)"><path fill="#C0C0C0" stroke="none" d="M 265.08359375 239 L 292.52359375 239 L 304.28359374999997 250.76 L 304.28359374999997 288 L 265.08359375 288" opacity="0.2"/></g><g transform="translate(-142,2) scale(1,1)"><path fill="#ffffff" stroke="none" d="M 258.08359375 232 L 285.52359375000003 232 L 297.28359375 243.76000000000002 L 297.28359375 281 L 258.08359375 281"/></g><g transform="translate(-142,2) scale(1,1)"><path fill="none" stroke="#000000" d="M 258.08359375 232 L 285.52359375000003 232 L 297.28359375 243.76000000000002 L 297.28359375 281 L 258.08359375 281 L 258.08359375 232" stroke-miterlimit="10"/></g><g transform="translate(-142,2) scale(1,1)"><path fill="none" stroke="#000000" d="M 285.52359375000003 232 L 285.52359375000003 243.76000000000002 L 297.28359375 243.76000000000002 L 285.52359375000003 232" stroke-miterlimit="10"/></g><g transform="translate(-142,2) scale(1,1)"><g><path fill="none" stroke="none"/><text fill="#000000" stroke="none" font-family="Arial" font-size="13px" font-style="normal" font-weight="bold" text-decoration="none" x="239.378662109375" y="300.5">package.json</text></g></g><g transform="translate(-142,2) scale(1,1)"><path fill="#C0C0C0" stroke="none" d="M 407.6236328125 239 L 435.0636328125 239 L 446.82363281249997 250.76 L 446.82363281249997 288 L 407.6236328125 288" opacity="0.2"/></g><g transform="translate(-142,2) scale(1,1)"><path fill="#ffffff" stroke="none" d="M 400.6236328125 232 L 428.06363281250003 232 L 439.8236328125 243.76000000000002 L 439.8236328125 281 L 400.6236328125 281"/></g><g transform="translate(-142,2) scale(1,1)"><path fill="none" stroke="#000000" d="M 400.6236328125 232 L 428.06363281250003 232 L 439.8236328125 243.76000000000002 L 439.8236328125 281 L 400.6236328125 281 L 400.6236328125 232" stroke-miterlimit="10"/></g><g transform="translate(-142,2) scale(1,1)"><path fill="none" stroke="#000000" d="M 428.06363281250003 232 L 428.06363281250003 243.76000000000002 L 439.8236328125 243.76000000000002 L 428.06363281250003 232" stroke-miterlimit="10"/></g><g transform="translate(-142,2) scale(1,1)"><g><path fill="none" stroke="none"/><text fill="#000000" stroke="none" font-family="Arial" font-size="13px" font-style="normal" font-weight="bold" text-decoration="none" x="381.5791015625" y="300.5">README.md</text></g></g><g transform="translate(-142,2) scale(1,1)"><path fill="#C0C0C0" stroke="none" d="M 268.0708984375 343 L 295.5108984375 343 L 307.27089843749997 354.76 L 307.27089843749997 392 L 268.0708984375 392" opacity="0.2"/></g><g transform="translate(-142,2) scale(1,1)"><path fill="#ffffff" stroke="none" d="M 261.0708984375 336 L 288.51089843750003 336 L 300.2708984375 347.76 L 300.2708984375 385 L 261.0708984375 385"/></g><g transform="translate(-142,2) scale(1,1)"><path fill="none" stroke="#000000" d="M 261.0708984375 336 L 288.51089843750003 336 L 300.2708984375 347.76 L 300.2708984375 385 L 261.0708984375 385 L 261.0708984375 336" stroke-miterlimit="10"/></g><g transform="translate(-142,2) scale(1,1)"><path fill="none" stroke="#000000" d="M 288.51089843750003 336 L 288.51089843750003 347.76 L 300.2708984375 347.76 L 288.51089843750003 336" stroke-miterlimit="10"/></g><g transform="translate(-142,2) scale(1,1)"><g><path fill="none" stroke="none"/><text fill="#000000" stroke="none" font-family="Arial" font-size="13px" font-style="normal" font-weight="bold" text-decoration="none" x="252.85546875" y="404.5">LICENSE</text></g></g><g transform="translate(-142,2) scale(1,1)"><path fill="#C0C0C0" stroke="none" d="M 511 105 L 828 105 L 828 590 L 511 590" opacity="0.2"/></g><g transform="translate(-142,2) scale(1,1)"><path fill="#C0C0C0" stroke="none" d="M 511 105 L 521 95 L 838 95 L 828 105" opacity="0.2"/></g><g transform="translate(-142,2) scale(1,1)"><path fill="#C0C0C0" stroke="none" d="M 838 95 L 828 105 L 828 590 L 838 580" opacity="0.2"/></g><g transform="translate(-142,2) scale(1,1)"><path fill="#ffffff" stroke="none" d="M 504 98 L 821 98 L 821 583 L 504 583"/></g><g transform="translate(-142,2) scale(1,1)"><path fill="#ffffff" stroke="none" d="M 504 98 L 514 88 L 831 88 L 821 98"/></g><g transform="translate(-142,2) scale(1,1)"><path fill="#ffffff" stroke="none" d="M 831 88 L 821 98 L 821 583 L 831 573"/></g><g transform="translate(-142,2) scale(1,1)"><path fill="none" stroke="#000000" d="M 504 98 L 821 98 L 821 583 L 504 583 L 504 98" stroke-miterlimit="10"/></g><g transform="translate(-142,2) scale(1,1)"><path fill="none" stroke="#000000" d="M 504 98 L 514 88 L 831 88 L 821 98 L 504 98" stroke-miterlimit="10"/></g><g transform="translate(-142,2) scale(1,1)"><path fill="none" stroke="#000000" d="M 831 88 L 821 98 L 821 583 L 831 573 L 831 88" stroke-miterlimit="10"/></g><g transform="translate(-142,2) scale(1,1)"><g><path fill="none" stroke="none"/><text fill="#000000" stroke="none" font-family="Arial" font-size="13px" font-style="normal" font-weight="bold" text-decoration="none" x="649.27001953125" y="117.5">docs</text></g></g><g transform="translate(-142,2) scale(1,1)"><path fill="#C0C0C0" stroke="none" d="M 527 153 L 668 153 L 668 574 L 527 574" opacity="0.2"/></g><g transform="translate(-142,2) scale(1,1)"><path fill="#C0C0C0" stroke="none" d="M 527 153 L 537 143 L 678 143 L 668 153" opacity="0.2"/></g><g transform="translate(-142,2) scale(1,1)"><path fill="#C0C0C0" stroke="none" d="M 678 143 L 668 153 L 668 574 L 678 564" opacity="0.2"/></g><g transform="translate(-142,2) scale(1,1)"><path fill="#ffffff" stroke="none" d="M 520 146 L 661 146 L 661 567 L 520 567"/></g><g transform="translate(-142,2) scale(1,1)"><path fill="#ffffff" stroke="none" d="M 520 146 L 530 136 L 671 136 L 661 146"/></g><g transform="translate(-142,2) scale(1,1)"><path fill="#ffffff" stroke="none" d="M 671 136 L 661 146 L 661 567 L 671 557"/></g><g transform="translate(-142,2) scale(1,1)"><path fill="none" stroke="#000000" d="M 520 146 L 661 146 L 661 567 L 520 567 L 520 146" stroke-miterlimit="10"/></g><g transform="translate(-142,2) scale(1,1)"><path fill="none" stroke="#000000" d="M 520 146 L 530 136 L 671 136 L 661 146 L 520 146" stroke-miterlimit="10"/></g><g transform="translate(-142,2) scale(1,1)"><path fill="none" stroke="#000000" d="M 671 136 L 661 146 L 661 567 L 671 557 L 671 136" stroke-miterlimit="10"/></g><g transform="translate(-142,2) scale(1,1)"><g><path fill="none" stroke="none"/><text fill="#000000" stroke="none" font-family="Arial" font-size="13px" font-style="normal" font-weight="bold" text-decoration="none" x="580.52001953125" y="165.5">doc</text></g></g><g transform="translate(-142,2) scale(1,1)"><path fill="#C0C0C0" stroke="none" d="M 599 473 L 646.72998046875 473 L 646.72998046875 506 L 599 506" opacity="0.2"/></g><g transform="translate(-142,2) scale(1,1)"><path fill="#C0C0C0" stroke="none" d="M 599 473 L 609 463 L 656.72998046875 463 L 646.72998046875 473" opacity="0.2"/></g><g transform="translate(-142,2) scale(1,1)"><path fill="#C0C0C0" stroke="none" d="M 656.72998046875 463 L 646.72998046875 473 L 646.72998046875 506 L 656.72998046875 496" opacity="0.2"/></g><g transform="translate(-142,2) scale(1,1)"><path fill="#ffffff" stroke="none" d="M 592 466 L 639.72998046875 466 L 639.72998046875 499 L 592 499"/></g><g transform="translate(-142,2) scale(1,1)"><path fill="#ffffff" stroke="none" d="M 592 466 L 602 456 L 649.72998046875 456 L 639.72998046875 466"/></g><g transform="translate(-142,2) scale(1,1)"><path fill="#ffffff" stroke="none" d="M 649.72998046875 456 L 639.72998046875 466 L 639.72998046875 499 L 649.72998046875 489"/></g><g transform="translate(-142,2) scale(1,1)"><path fill="none" stroke="#000000" d="M 592 466 L 639.72998046875 466 L 639.72998046875 499 L 592 499 L 592 466" stroke-miterlimit="10"/></g><g transform="translate(-142,2) scale(1,1)"><path fill="none" stroke="#000000" d="M 592 466 L 602 456 L 649.72998046875 456 L 639.72998046875 466 L 592 466" stroke-miterlimit="10"/></g><g transform="translate(-142,2) scale(1,1)"><path fill="none" stroke="#000000" d="M 649.72998046875 456 L 639.72998046875 466 L 639.72998046875 499 L 649.72998046875 489 L 649.72998046875 456" stroke-miterlimit="10"/></g><g transform="translate(-142,2) scale(1,1)"><g><path fill="none" stroke="none"/><text fill="#000000" stroke="none" font-family="Arial" font-size="13px" font-style="normal" font-weight="bold" text-decoration="none" x="602.273193359375" y="485.5">fonts</text></g></g><g transform="translate(-142,2) scale(1,1)"><path fill="#C0C0C0" stroke="none" d="M 535 537 L 585.630859375 537 L 585.630859375 570 L 535 570" opacity="0.2"/></g><g transform="translate(-142,2) scale(1,1)"><path fill="#C0C0C0" stroke="none" d="M 535 537 L 545 527 L 595.630859375 527 L 585.630859375 537" opacity="0.2"/></g><g transform="translate(-142,2) scale(1,1)"><path fill="#C0C0C0" stroke="none" d="M 595.630859375 527 L 585.630859375 537 L 585.630859375 570 L 595.630859375 560" opacity="0.2"/></g><g transform="translate(-142,2) scale(1,1)"><path fill="#ffffff" stroke="none" d="M 528 530 L 578.630859375 530 L 578.630859375 563 L 528 563"/></g><g transform="translate(-142,2) scale(1,1)"><path fill="#ffffff" stroke="none" d="M 528 530 L 538 520 L 588.630859375 520 L 578.630859375 530"/></g><g transform="translate(-142,2) scale(1,1)"><path fill="#ffffff" stroke="none" d="M 588.630859375 520 L 578.630859375 530 L 578.630859375 563 L 588.630859375 553"/></g><g transform="translate(-142,2) scale(1,1)"><path fill="none" stroke="#000000" d="M 528 530 L 578.630859375 530 L 578.630859375 563 L 528 563 L 528 530" stroke-miterlimit="10"/></g><g transform="translate(-142,2) scale(1,1)"><path fill="none" stroke="#000000" d="M 528 530 L 538 520 L 588.630859375 520 L 578.630859375 530 L 528 530" stroke-miterlimit="10"/></g><g transform="translate(-142,2) scale(1,1)"><path fill="none" stroke="#000000" d="M 588.630859375 520 L 578.630859375 530 L 578.630859375 563 L 588.630859375 553 L 588.630859375 520" stroke-miterlimit="10"/></g><g transform="translate(-142,2) scale(1,1)"><g><path fill="none" stroke="none"/><text fill="#000000" stroke="none" font-family="Arial" font-size="13px" font-style="normal" font-weight="bold" text-decoration="none" x="535.035888671875" y="549.5">scripts</text></g></g><g transform="translate(-142,2) scale(1,1)"><path fill="#C0C0C0" stroke="none" d="M 535 481 L 582.72998046875 481 L 582.72998046875 514 L 535 514" opacity="0.2"/></g><g transform="translate(-142,2) scale(1,1)"><path fill="#C0C0C0" stroke="none" d="M 535 481 L 545 471 L 592.72998046875 471 L 582.72998046875 481" opacity="0.2"/></g><g transform="translate(-142,2) scale(1,1)"><path fill="#C0C0C0" stroke="none" d="M 592.72998046875 471 L 582.72998046875 481 L 582.72998046875 514 L 592.72998046875 504" opacity="0.2"/></g><g transform="translate(-142,2) scale(1,1)"><path fill="#ffffff" stroke="none" d="M 528 474 L 575.72998046875 474 L 575.72998046875 507 L 528 507"/></g><g transform="translate(-142,2) scale(1,1)"><path fill="#ffffff" stroke="none" d="M 528 474 L 538 464 L 585.72998046875 464 L 575.72998046875 474"/></g><g transform="translate(-142,2) scale(1,1)"><path fill="#ffffff" stroke="none" d="M 585.72998046875 464 L 575.72998046875 474 L 575.72998046875 507 L 585.72998046875 497"/></g><g transform="translate(-142,2) scale(1,1)"><path fill="none" stroke="#000000" d="M 528 474 L 575.72998046875 474 L 575.72998046875 507 L 528 507 L 528 474" stroke-miterlimit="10"/></g><g transform="translate(-142,2) scale(1,1)"><path fill="none" stroke="#000000" d="M 528 474 L 538 464 L 585.72998046875 464 L 575.72998046875 474 L 528 474" stroke-miterlimit="10"/></g><g transform="translate(-142,2) scale(1,1)"><path fill="none" stroke="#000000" d="M 585.72998046875 464 L 575.72998046875 474 L 575.72998046875 507 L 585.72998046875 497 L 585.72998046875 464" stroke-miterlimit="10"/></g><g transform="translate(-142,2) scale(1,1)"><g><path fill="none" stroke="none"/><text fill="#000000" stroke="none" font-family="Arial" font-size="13px" font-style="normal" font-weight="bold" text-decoration="none" x="535.75" y="493.5">styles</text></g></g><g transform="translate(-142,2) scale(1,1)"><path fill="#C0C0C0" stroke="none" d="M 600.403173828125 239 L 627.843173828125 239 L 639.603173828125 250.76000000000002 L 639.603173828125 288 L 600.403173828125 288" opacity="0.2"/></g><g transform="translate(-142,2) scale(1,1)"><path fill="#ffffff" stroke="none" d="M 593.403173828125 232 L 620.843173828125 232 L 632.603173828125 243.76000000000002 L 632.603173828125 281 L 593.403173828125 281"/></g><g transform="translate(-142,2) scale(1,1)"><path fill="none" stroke="#000000" d="M 593.403173828125 232 L 620.843173828125 232 L 632.603173828125 243.76000000000002 L 632.603173828125 281 L 593.403173828125 281 L 593.403173828125 232" stroke-miterlimit="10"/></g><g transform="translate(-142,2) scale(1,1)"><path fill="none" stroke="#000000" d="M 620.843173828125 232 L 620.843173828125 243.76000000000002 L 632.603173828125 243.76000000000002 L 620.843173828125 232" stroke-miterlimit="10"/></g><g transform="translate(-142,2) scale(1,1)"><g><path fill="none" stroke="none"/><text fill="#000000" stroke="none" font-family="Arial" font-size="13px" font-style="normal" font-weight="bold" text-decoration="none" x="583.378662109375" y="300.5">index.html</text></g></g><g transform="translate(-142,2) scale(1,1)"><path fill="#C0C0C0" stroke="none" d="M 599.62998046875 311 L 627.06998046875 311 L 638.82998046875 322.76 L 638.82998046875 360 L 599.62998046875 360" opacity="0.2"/></g><g transform="translate(-142,2) scale(1,1)"><path fill="#ffffff" stroke="none" d="M 592.62998046875 304 L 620.06998046875 304 L 631.82998046875 315.76 L 631.82998046875 353 L 592.62998046875 353"/></g><g transform="translate(-142,2) scale(1,1)"><path fill="none" stroke="#000000" d="M 592.62998046875 304 L 620.06998046875 304 L 631.82998046875 315.76 L 631.82998046875 353 L 592.62998046875 353 L 592.62998046875 304" stroke-miterlimit="10"/></g><g transform="translate(-142,2) scale(1,1)"><path fill="none" stroke="#000000" d="M 620.06998046875 304 L 620.06998046875 315.76 L 631.82998046875 315.76 L 620.06998046875 304" stroke-miterlimit="10"/></g><g transform="translate(-142,2) scale(1,1)"><g><path fill="none" stroke="none"/><text fill="#000000" stroke="none" font-family="Arial" font-size="13px" font-style="normal" font-weight="bold" text-decoration="none" x="576.10546875" y="372.5">index.js.html</text></g></g><g transform="translate(-142,2) scale(1,1)"><path fill="#C0C0C0" stroke="none" d="M 588.258642578125 383 L 615.698642578125 383 L 627.458642578125 394.76 L 627.458642578125 432 L 588.258642578125 432" opacity="0.2"/></g><g transform="translate(-142,2) scale(1,1)"><path fill="#ffffff" stroke="none" d="M 581.258642578125 376 L 608.698642578125 376 L 620.458642578125 387.76 L 620.458642578125 425 L 581.258642578125 425"/></g><g transform="translate(-142,2) scale(1,1)"><path fill="none" stroke="#000000" d="M 581.258642578125 376 L 608.698642578125 376 L 620.458642578125 387.76 L 620.458642578125 425 L 581.258642578125 425 L 581.258642578125 376" stroke-miterlimit="10"/></g><g transform="translate(-142,2) scale(1,1)"><path fill="none" stroke="#000000" d="M 608.698642578125 376 L 608.698642578125 387.76 L 620.458642578125 387.76 L 608.698642578125 376" stroke-miterlimit="10"/></g><g transform="translate(-142,2) scale(1,1)"><g><path fill="none" stroke="none"/><text fill="#000000" stroke="none" font-family="Arial" font-size="13px" font-style="normal" font-weight="bold" text-decoration="none" x="552.8037109375" y="444.5">movepopup.html</text></g></g><g transform="translate(-142,2) scale(1,1)"><path fill="#C0C0C0" stroke="none" d="M 698.2681640625 207 L 725.7081640625 207 L 737.4681640625 218.76000000000002 L 737.4681640625 256 L 698.2681640625 256" opacity="0.2"/></g><g transform="translate(-142,2) scale(1,1)"><path fill="#ffffff" stroke="none" d="M 691.2681640625 200 L 718.7081640625 200 L 730.4681640625 211.76000000000002 L 730.4681640625 249 L 691.2681640625 249"/></g><g transform="translate(-142,2) scale(1,1)"><path fill="none" stroke="#000000" d="M 691.2681640625 200 L 718.7081640625 200 L 730.4681640625 211.76000000000002 L 730.4681640625 249 L 691.2681640625 249 L 691.2681640625 200" stroke-miterlimit="10"/></g><g transform="translate(-142,2) scale(1,1)"><path fill="none" stroke="#000000" d="M 718.7081640625 200 L 718.7081640625 211.76000000000002 L 730.4681640625 211.76000000000002 L 718.7081640625 200" stroke-miterlimit="10"/></g><g transform="translate(-142,2) scale(1,1)"><g><path fill="none" stroke="none"/><text fill="#000000" stroke="none" font-family="Arial" font-size="13px" font-style="normal" font-weight="bold" text-decoration="none" x="688.8291015625" y="268.5">index.js</text></g></g><g transform="translate(-142,2) scale(1,1)"><path fill="#C0C0C0" stroke="none" d="M 704.403173828125 287 L 731.843173828125 287 L 743.603173828125 298.76 L 743.603173828125 336 L 704.403173828125 336" opacity="0.2"/></g><g transform="translate(-142,2) scale(1,1)"><path fill="#ffffff" stroke="none" d="M 697.403173828125 280 L 724.843173828125 280 L 736.603173828125 291.76 L 736.603173828125 329 L 697.403173828125 329"/></g><g transform="translate(-142,2) scale(1,1)"><path fill="none" stroke="#000000" d="M 697.403173828125 280 L 724.843173828125 280 L 736.603173828125 291.76 L 736.603173828125 329 L 697.403173828125 329 L 697.403173828125 280" stroke-miterlimit="10"/></g><g transform="translate(-142,2) scale(1,1)"><path fill="none" stroke="#000000" d="M 724.843173828125 280 L 724.843173828125 291.76 L 736.603173828125 291.76 L 724.843173828125 280" stroke-miterlimit="10"/></g><g transform="translate(-142,2) scale(1,1)"><g><path fill="none" stroke="none"/><text fill="#000000" stroke="none" font-family="Arial" font-size="13px" font-style="normal" font-weight="bold" text-decoration="none" x="687.378662109375" y="348.5">index.html</text></g></g><g transform="translate(-142,2) scale(1,1)"><path fill="#C0C0C0" stroke="none" d="M 709.527685546875 367 L 736.967685546875 367 L 748.727685546875 378.76 L 748.727685546875 416 L 709.527685546875 416" opacity="0.2"/></g><g transform="translate(-142,2) scale(1,1)"><path fill="#ffffff" stroke="none" d="M 702.527685546875 360 L 729.967685546875 360 L 741.727685546875 371.76 L 741.727685546875 409 L 702.527685546875 409"/></g><g transform="translate(-142,2) scale(1,1)"><path fill="none" stroke="#000000" d="M 702.527685546875 360 L 729.967685546875 360 L 741.727685546875 371.76 L 741.727685546875 409 L 702.527685546875 409 L 702.527685546875 360" stroke-miterlimit="10"/></g><g transform="translate(-142,2) scale(1,1)"><path fill="none" stroke="#000000" d="M 729.967685546875 360 L 729.967685546875 371.76 L 741.727685546875 371.76 L 729.967685546875 360" stroke-miterlimit="10"/></g><g transform="translate(-142,2) scale(1,1)"><g><path fill="none" stroke="none"/><text fill="#000000" stroke="none" font-family="Arial" font-size="13px" font-style="normal" font-weight="bold" text-decoration="none" x="695.03271484375" y="428.5">index.css</text></g></g><g transform="translate(-142,2) scale(1,1)"><path fill="#C0C0C0" stroke="none" d="M 199 465 L 356 465 L 356 622 L 199 622" opacity="0.2"/></g><g transform="translate(-142,2) scale(1,1)"><path fill="#C0C0C0" stroke="none" d="M 199 465 L 209 455 L 366 455 L 356 465" opacity="0.2"/></g><g transform="translate(-142,2) scale(1,1)"><path fill="#C0C0C0" stroke="none" d="M 366 455 L 356 465 L 356 622 L 366 612" opacity="0.2"/></g><g transform="translate(-142,2) scale(1,1)"><path fill="#ffffff" stroke="none" d="M 192 458 L 349 458 L 349 615 L 192 615"/></g><g transform="translate(-142,2) scale(1,1)"><path fill="#ffffff" stroke="none" d="M 192 458 L 202 448 L 359 448 L 349 458"/></g><g transform="translate(-142,2) scale(1,1)"><path fill="#ffffff" stroke="none" d="M 359 448 L 349 458 L 349 615 L 359 605"/></g><g transform="translate(-142,2) scale(1,1)"><path fill="none" stroke="#000000" d="M 192 458 L 349 458 L 349 615 L 192 615 L 192 458" stroke-miterlimit="10"/></g><g transform="translate(-142,2) scale(1,1)"><path fill="none" stroke="#000000" d="M 192 458 L 202 448 L 359 448 L 349 458 L 192 458" stroke-miterlimit="10"/></g><g transform="translate(-142,2) scale(1,1)"><path fill="none" stroke="#000000" d="M 359 448 L 349 458 L 349 615 L 359 605 L 359 448" stroke-miterlimit="10"/></g><g transform="translate(-142,2) scale(1,1)"><g><path fill="none" stroke="none"/><text fill="#000000" stroke="none" font-family="Arial" font-size="13px" font-style="normal" font-weight="bold" text-decoration="none" x="260.523193359375" y="477.5">test</text></g></g><g transform="translate(-142,2) scale(1,1)"><path fill="#C0C0C0" stroke="none" d="M 266.2681640625 511 L 293.7081640625 511 L 305.46816406249997 522.76 L 305.46816406249997 560 L 266.2681640625 560" opacity="0.2"/></g><g transform="translate(-142,2) scale(1,1)"><path fill="#ffffff" stroke="none" d="M 259.2681640625 504 L 286.70816406250003 504 L 298.4681640625 515.76 L 298.4681640625 553 L 259.2681640625 553"/></g><g transform="translate(-142,2) scale(1,1)"><path fill="none" stroke="#000000" d="M 259.2681640625 504 L 286.70816406250003 504 L 298.4681640625 515.76 L 298.4681640625 553 L 259.2681640625 553 L 259.2681640625 504" stroke-miterlimit="10"/></g><g transform="translate(-142,2) scale(1,1)"><path fill="none" stroke="#000000" d="M 286.70816406250003 504 L 286.70816406250003 515.76 L 298.4681640625 515.76 L 286.70816406250003 504" stroke-miterlimit="10"/></g><g transform="translate(-142,2) scale(1,1)"><g><path fill="none" stroke="none"/><text fill="#000000" stroke="none" font-family="Arial" font-size="13px" font-style="normal" font-weight="bold" text-decoration="none" x="261.891357421875" y="572.5">test.js</text></g></g><g transform="translate(-142,2) scale(1,1)"><path fill="#C0C0C0" stroke="none" d="M 409.383154296875 343 L 436.823154296875 343 L 448.58315429687497 354.76 L 448.58315429687497 392 L 409.383154296875 392" opacity="0.2"/></g><g transform="translate(-142,2) scale(1,1)"><path fill="#ffffff" stroke="none" d="M 402.383154296875 336 L 429.82315429687503 336 L 441.583154296875 347.76 L 441.583154296875 385 L 402.383154296875 385"/></g><g transform="translate(-142,2) scale(1,1)"><path fill="none" stroke="#000000" d="M 402.383154296875 336 L 429.82315429687503 336 L 441.583154296875 347.76 L 441.583154296875 385 L 402.383154296875 385 L 402.383154296875 336" stroke-miterlimit="10"/></g><g transform="translate(-142,2) scale(1,1)"><path fill="none" stroke="#000000" d="M 429.82315429687503 336 L 429.82315429687503 347.76 L 441.583154296875 347.76 L 429.82315429687503 336" stroke-miterlimit="10"/></g><g transform="translate(-142,2) scale(1,1)"><g><path fill="none" stroke="none"/><text fill="#000000" stroke="none" font-family="Arial" font-size="13px" font-style="normal" font-weight="bold" text-decoration="none" x="376.457763671875" y="404.5">deployment.svg</text></g></g></g></svg>